# xmcd
#
# Track frame offsets: 
#        150
#        18844
#        37271
#        55718
#        78496
#        95508
#        115250
#        134874
#        155346
#        170281
#        189409
#        208724
#        220207
#        239883
#        258366
#        277520
#
# Disc length: 4004 seconds
#
# Revision: 2
# Processed by: cddbd v1.5.2PL0 Copyright (c) Steve Scherf et al.
# Submitted via: ExactAudioCopy v0.99pb4
#
DISCID=e20fa210
DTITLE=Виктор Королёв - За любовь!...
DYEAR=2000
DGENRE=Шансон
TTITLE0=Невеста
TTITLE1=А я звал тебя красивой
TTITLE2=Я тебя сегодня целовал
TTITLE3=Симпотичная девушка
TTITLE4=Врушка
TTITLE5=А тучи белые
TTITLE6=Было или нет
TTITLE7=Отгорели кисти алые рябин
TTITLE8=Танюха-лётчится
TTITLE9=Мама
TTITLE10=Как берёзка дрожала
TTITLE11=Вредная
TTITLE12=Было или нет (караоке)
TTITLE13=Я тебя сегодня целовал (караоке)
TTITLE14=Мама (караоке)
TTITLE15=Симпотичная девушка (караоке)
EXTD=
EXTT0=
EXTT1=
EXTT2=
EXTT3=
EXTT4=
EXTT5=
EXTT6=
EXTT7=
EXTT8=
EXTT9=
EXTT10=
EXTT11=
EXTT12=
EXTT13=
EXTT14=
EXTT15=
PLAYORDER=
